PathFileType	3	(X/Y/Z)	results
DataRate	CameraRate	NumFrames	NumMarkers	Units	OrigDataRate	OrigDataStartFrame	OrigNumFrames
30.0	30.0	4	85	mm	30.0	66	262
Frame#	Time	head			nose			neck			shoulder_r			elbow_r			wrist_r			shoulder_l			elbow_l			wrist_l			hip_r			knee_r			ankle_r			hip_l			knee_l			ankle_l			heel_r			heel_l			mtoe_r			ltoe_r			mtoe_l			ltoe_l			asis_l			asis_r			psi_r			psi_l			mhnd_r			lhnd_r			mhnd_l			lhnd_l			l_lat_knee			r_med_wrist			l_lat_ankle			r_med_ankle			r_lat_knee			xiphoid			l_med_ankle			r_med_knee			l_med_elbow			navel			r_lat_elbow			r_lat_wrist			l_med_wrist			l_lat_elbow			l_med_knee			r_med_elbow			r_lat_ankle			l_lat_wrist			chin			T10			r_eye			l_eye			l_ear			r_ear			spinal_cord_8			spinal_cord_12			spinal_cord_27			spinal_cord_33			up_arm_r_0			up_arm_r_5			up_arm_l_0			up_arm_l_5			front_torso_11			front_torso_7			front_torso_4			front_torso_1			front_torso_10			thigh_r_2			thigh_r_3			thigh_l_1			thigh_l_5			shank_l_0			shank_l_4			shank_r_1			shank_r_2			foot_r_1			foot_r_3			foot_r_5			foot_r_6			foot_r_7			foot_l_1			foot_l_7			foot_l_0			foot_l_4			foot_l_5			foot_l_6			
		X1	Y1	Z1	X2	Y2	Z2	X3	Y3	Z3	X4	Y4	Z4	X5	Y5	Z5	X6	Y6	Z6	X7	Y7	Z7	X8	Y8	Z8	X9	Y9	Z9	X10	Y10	Z10	X11	Y11	Z11	X12	Y12	Z12	X13	Y13	Z13	X14	Y14	Z14	X15	Y15	Z15	X16	Y16	Z16	X17	Y17	Z17	X18	Y18	Z18	X19	Y19	Z19	X20	Y20	Z20	X21	Y21	Z21	X22	Y22	Z22	X23	Y23	Z23	X24	Y24	Z24	X25	Y25	Z25	X26	Y26	Z26	X27	Y27	Z27	X28	Y28	Z28	X29	Y29	Z29	X30	Y30	Z30	X31	Y31	Z31	X32	Y32	Z32	X33	Y33	Z33	X34	Y34	Z34	X35	Y35	Z35	X36	Y36	Z36	X37	Y37	Z37	X38	Y38	Z38	X39	Y39	Z39	X40	Y40	Z40	X41	Y41	Z41	X42	Y42	Z42	X43	Y43	Z43	X44	Y44	Z44	X45	Y45	Z45	X46	Y46	Z46	X47	Y47	Z47	X48	Y48	Z48	X49	Y49	Z49	X50	Y50	Z50	X51	Y51	Z51	X52	Y52	Z52	X53	Y53	Z53	X54	Y54	Z54	X55	Y55	Z55	X56	Y56	Z56	X57	Y57	Z57	X58	Y58	Z58	X59	Y59	Z59	X60	Y60	Z60	X61	Y61	Z61	X62	Y62	Z62	X63	Y63	Z63	X64	Y64	Z64	X65	Y65	Z65	X66	Y66	Z66	X67	Y67	Z67	X68	Y68	Z68	X69	Y69	Z69	X70	Y70	Z70	X71	Y71	Z71	X72	Y72	Z72	X73	Y73	Z73	X74	Y74	Z74	X75	Y75	Z75	X76	Y76	Z76	X77	Y77	Z77	X78	Y78	Z78	X79	Y79	Z79	X80	Y80	Z80	X81	Y81	Z81	X82	Y82	Z82	X83	Y83	Z83	X84	Y84	Z84	X85	Y85	Z85	
66	2.2	79.94139493046077	1680.178871270219	-206.66820806080005	98.15149468287068	1495.5091736629881	-293.25460481231494	74.23617909655061	1383.4556521948068	-137.48866741799682	247.4680406688168	1361.6187417622334	-157.90341063643146	310.5207582189063	1245.5282880131422	-380.08414481374416	162.0125449309181	1417.0055457336625	-412.2599210909771	-83.7619806633387	1342.9769122218229	-151.72298306417227	-111.66808043935531	1234.840115665575	-376.33120541207154	30.994081985225158	1414.0236027905264	-417.82082713005195	182.73571035276993	871.8601380733868	-130.80535829479058	203.0325694540728	487.8242609208046	-83.00393113205226	261.6148702772825	114.52568310740341	-70.64826611818133	-16.595540597201154	855.2487001847996	-131.65074740149387	-33.255521350752815	485.13173791611894	-78.65544627977158	-95.25835372449774	115.78949066241107	-52.5556342445522	262.8366704466963	61.31834390017873	-54.96467504953674	-106.27096889958813	56.73899873302053	-26.347248145719515	281.0692470845161	36.059042306250355	-282.18232077699156	342.5321659682308	38.31298004313875	-215.3106650173358	-105.26370763949647	45.36525918978175	-256.775855777364	-183.77369801127242	33.7335944494616	-196.28206749571726	-65.53924545475135	909.993572694361	-182.13285105844398	226.5267986976996	931.688317206601	-177.15733124978817	124.74501197004008	960.1434641985136	-42.22215339748384	25.43389702430042	950.7786683803305	-48.47181670666589	113.28957554064014	1456.7085563124988	-450.0941777803011	113.88481327510915	1489.2168493696233	-407.5277728428623	78.31817781041003	1457.9851984974616	-458.34766833410913	80.42159482869691	1487.079096810395	-413.5719155039072	-81.52793373482265	482.0920196958588	-71.48618106031974	168.3286655631776	1405.798735296665	-438.0561095772825	-146.63063581853504	110.56644365564294	-39.71142548759682	230.8723154186496	99.87001151766239	-85.86322043499305	246.30516086940142	480.0303744395257	-83.43790411423025	89.02140602652645	1211.4086479821783	-232.66536699454932	-70.89383952891404	99.26078300725261	-69.42582485087547	162.3413966666735	478.7301951757214	-91.27557893169698	-93.90354025623135	1211.6030744859504	-358.0505073171022	91.96458781186037	989.0723053401822	-247.20734307458204	336.08852432706146	1275.649434339721	-381.06400452816814	161.79131433203833	1413.0071934260154	-380.72521614072707	19.11882529779868	1404.0093676692409	-446.23556880931244	-138.2845700027568	1262.1419227817642	-374.4714240226195	2.6937674134876293	477.5266377226466	-109.67983184386529	284.5868618747676	1222.675962113389	-368.57503431133307	309.79509049966805	104.14249145727605	-69.75949581064268	22.595743819664893	1417.8606900666505	-388.0494066823327	97.36476785340598	1426.8032457232464	-262.5275899093977	67.2110144823881	1223.0668988928505	-35.42778358164595	128.8808895410581	1526.8999479577485	-293.6457652427311	63.097874154567705	1523.6370858912012	-302.6412190451977	-0.6067475849725751	1532.6782387526619	-212.92850738398062	162.27038292639617	1538.2286869090879	-187.69058686721277	67.68355205530676	1443.5788968025668	-88.37865949262813	63.294613319709484	1324.6258911341865	-36.03134880060729	82.58207950894364	1069.4180693124588	-49.80118143036089	68.71556375829019	1213.271798342495	-48.542118988895965	259.190979539825	1338.4052574383884	-290.9832013562821	315.42729686051064	1274.222023055625	-272.49328788369667	-112.01979704465404	1336.879835817023	-201.77507984859787	-94.49853458708262	1229.5929649155937	-297.87127930816143	131.28104846141932	1018.2332083826418	-202.61034652093906	94.89486146748634	1123.1483028268606	-263.17135957775264	29.752560137023174	1256.1696986471838	-245.12211256427136	23.513725659714233	1050.2217426863037	-218.7741167350676	162.09844464815313	1300.580369881132	-238.78047002868814	176.29436683522425	661.5330448344457	-108.79755333864605	273.3554845186293	631.9568447824422	-97.45205927026382	14.622498249789825	586.7458091613557	-106.41984173011292	-119.2471358949027	759.0621641331811	-113.18034141148004	-145.23360399599068	216.07479329456376	-57.60737843949894	-12.531272412227887	334.05512359814173	-80.57201582533324	284.0809734021761	336.7722350650638	-71.78528462889395	195.55735964489293	286.76162986264876	-84.57884604009094	303.1587578962532	30.859548721102442	-261.2400903244749	326.05191098815686	34.761946074958736	-242.2857758664753	260.7772369135305	52.85277277373986	-200.66461422889395	296.7561439140146	61.90750857259073	-184.37030086114152	327.46960998008257	50.19519199323498	-168.34233785764476	-154.24049851376054	33.33951951288151	-227.9879193439728	-168.8918864483332	68.79149009027647	-121.6949294259459	-169.07240294318092	33.5510618490779	-219.38359331794285	-135.99394711938567	33.0780209684339	-237.89984055996064	-140.8372684278846	51.758614531059635	-178.92882854010986	-108.6680206926948	65.60633150674823	-150.45012460365174	
67	2.2333333333333334	80.3479151381971	1680.2332110414964	-200.91889866272143	96.73064045865533	1496.3628707942585	-289.54741178456595	74.78034459984748	1382.4640896688363	-134.91463046851482	247.53016506276663	1361.7412456463508	-154.71789195587948	313.32636788469233	1245.5221044710997	-376.0341548024995	162.41478648790527	1414.8446301581882	-408.4378089737364	-80.95350083448318	1345.2738938901232	-150.69705488619732	-112.97227749779323	1232.6836372392188	-372.551517921558	28.895655023615117	1412.7784182346957	-412.80028108899495	183.70608576363844	871.0936486010945	-135.44759261020153	203.6568670745124	488.31717994790233	-79.27114518838131	262.5952641208459	114.98088700200543	-70.17970150719675	-15.585536253422058	854.0147338418045	-134.57453980395812	-32.935565502697145	484.6806794558825	-76.89921502126974	-95.73849049394383	115.3848249919332	-52.087695411521416	263.9216149150989	61.96600659283071	-54.6459839095816	-106.89314160270489	56.27835371425337	-26.078247873122656	283.1323977843708	35.19435151343071	-281.60972992125966	344.4183547790134	39.61263156199496	-214.68365687249164	-105.35678337346977	45.57932829332388	-256.5362488189254	-183.99046187418907	33.690952999183764	-196.2533841575356	-65.13990214718025	909.2524785844402	-183.91100175166105	226.91024095964806	931.5868847828116	-181.48611108888795	126.372687048571	958.1521378957681	-45.23921276653728	27.027467692659638	948.625491575852	-50.64528758856865	113.14607069589982	1453.8130969875294	-446.32896904623817	113.26793641709057	1486.3722358517637	-403.7974527328977	76.160885396065	1457.1324324605512	-452.9666379146026	77.90450945012624	1486.0869279331305	-408.0851908479812	-81.18984145532902	481.81881722981143	-69.39652425071394	168.89683858115896	1403.7006947698221	-434.2200708053391	-147.12080090188678	110.22843394373739	-39.25667461517064	231.595428683237	100.40089459616425	-84.93850390210133	246.90617204833248	480.219129399714	-80.32796129250941	88.69021663831843	1211.579085192541	-232.2912675084448	-71.41153303444716	98.86244264804166	-69.01817332197245	162.81857885866137	479.02326847147	-86.72170041467808	-94.86436882524774	1209.8151691827131	-354.1433755438994	91.55316315667106	989.4347226570799	-249.5326821168707	338.45032830473286	1276.0134079658644	-377.04473327586686	162.2405631838719	1410.8774009693573	-376.89887875635446	17.202918573601135	1402.7951617956119	-441.30148591155927	-139.55942496648694	1260.0175123939941	-370.74380284282705	2.7482195265616864	476.5327088915441	-108.11798592623116	287.67982108554133	1222.3443266662528	-364.53195255763006	310.7877677462801	104.61670177692383	-70.2011750518989	20.342890636840625	1416.4698619590174	-383.0544198179363	96.84888675148238	1427.390822251736	-259.4124577333084	68.7876231842772	1220.8576590753712	-34.72591845990623	127.38003057582306	1527.8216515929253	-290.43590588382676	61.39804970009965	1524.4961447972273	-297.80399760314623	-0.04819994077207013	1532.6202876466116	-206.4434556953545	163.40098364981142	1538.3001581020212	-185.2580077287229	68.68716406417774	1441.990247102336	-85.02431002558812	64.83782509632917	1322.4150376465702	-34.070672760189936	84.0607434592892	1067.3986585530658	-51.09338597789425	70.16778370355095	1211.221456590326	-47.971001136027354	260.2147060620011	1338.0594525427352	-287.62687939955225	317.3070062604108	1274.806221628643	-268.5641959884347	-110.13036493912344	1338.1811842686166	-200.0862742674344	-94.35220085192914	1229.000585471069	-294.33378479554204	131.29167192045702	1018.072877650061	-204.97102319696302	94.2920945420881	1123.6940195040531	-263.91144749086607	29.2913020763221	1256.4635175748097	-243.634765138184	23.36414726254085	1050.2113779190547	-219.7051970778912	161.68025728952114	1300.846311878798	-238.04107191636987	177.01472750378392	661.3378382784298	-108.59528738026846	274.1655856971656	631.7005264505076	-98.21873154378972	15.020147501872087	585.7470126317523	-106.27809272955773	-118.38707484466315	758.3716398912295	-114.21286317742774	-145.49614799105686	215.79557305819847	-56.782892564459935	-12.539875041933792	333.56703464276046	-79.34733442074067	284.9499516800768	337.24148803530625	-70.38373637230931	196.2346277481479	287.26381211365026	-81.91583280207394	305.31723137047754	30.747853089303142	-260.5949720522968	328.0745888196883	35.40313005192384	-241.64708883280224	262.2954033845025	52.174449686581696	-200.2683046136967	298.0057693874891	62.29313852112917	-184.00925994110506	328.9862439949511	51.51478812602746	-167.84051505027213	-154.38575035391932	33.41963194258848	-227.8937642077951	-169.31210480795644	68.54578173652929	-121.53088235839398	-169.23714809409313	33.59092132754724	-219.32222930233965	-136.1167285507165	33.20568513460637	-237.76535326861577	-141.11159814886793	51.70886327750519	-178.75106455728445	-109.02058697420073	65.50600590467836	-150.1597686737459	
68	2.2666666666666666	80.53521832538449	1679.9594561622996	-194.17799809837214	94.69906317461329	1498.167378878095	-287.35919354858174	75.3413627880349	1381.5344540923056	-133.31613526632032	250.99421898171997	1360.4345215734804	-151.747816232488	311.97056675778185	1245.7187886801316	-375.21840248563575	161.1820595707189	1415.1490716900164	-407.6317517089172	-80.13409769087065	1345.3525725761333	-148.60218666260462	-112.66155005378694	1231.1162639908089	-369.53928486934836	29.445291284180318	1410.9853968803748	-409.95393610769946	184.54417872131833	870.4901994046925	-138.6573631322895	204.66146661539673	488.8579812556996	-75.8737471456994	263.5748598391555	115.4701876327196	-69.00757664027795	-14.736364030837127	853.2873913652963	-137.6925664104356	-32.158435995410535	484.84653037266	-74.93542191898462	-95.05757495988223	115.43938216075972	-52.10333518696016	264.9863541266218	62.57905283609566	-53.54524468208504	-105.95163567474756	56.369814117087174	-26.24730410750862	284.8526495265211	34.973468157008085	-280.3526072155878	346.0106716315108	41.28978228730613	-213.46172977270533	-106.48159255475217	45.52654822644052	-256.7030752915515	-184.51805739986634	33.39447012392692	-195.6970471560957	-64.40786694536438	909.2416078171833	-186.0950204842701	227.63405940237973	931.7015074111447	-183.8460098113102	127.32403607299433	956.1332809262211	-47.03330066334666	27.974524395451784	946.6338933898402	-52.40837367008777	111.78375477140531	1454.0251879766297	-445.4489811141319	112.18221675248	1486.782621644631	-403.07169920173726	76.85823165008573	1455.1775626843068	-450.12460162579913	78.48941803999904	1484.2762654131197	-405.33228025071327	-80.39719345984201	482.0822416957588	-67.14264612247922	167.5110193311144	1403.8734685906811	-433.3947942996247	-146.307049853423	110.23765050338736	-38.76922115274226	232.31189812751649	100.9500043207846	-83.26168922049354	247.894750345583	480.56691207063295	-77.3234451636755	87.20647412362408	1211.3598649119745	-232.19589591781036	-70.92625460542014	99.0166308794544	-69.40662037021015	163.73799152114958	479.37742668862614	-82.73254679387398	-94.56573078457878	1208.3591742797753	-350.9818312077883	89.55991609139367	989.3462405423011	-251.11658702302037	337.1910524585633	1276.120764517641	-376.483792164991	161.1649372989418	1411.329694470323	-376.0740989930581	17.82966241771265	1400.9175437543302	-438.4569126298916	-139.19998857410903	1258.5082550532536	-367.90371712608015	3.294996322119031	476.1689381003553	-106.30312144059626	286.4626447808505	1222.5490625714374	-363.396172931078	311.75453433850583	105.08602739121459	-69.91443020938546	20.80761692758974	1414.7789446173022	-380.24547981223157	95.74111318041264	1428.5333782527748	-258.8058573738443	71.19167852223676	1219.2010482595545	-34.21530477382413	125.27106560042789	1529.697269017108	-288.38297143223747	59.11486088379475	1526.4115488183163	-293.9981465482101	0.2096541266905505	1532.3539129038277	-200.81415202324408	164.1749282804712	1537.8697020952895	-184.03068719513993	70.27407766552096	1440.6967493724019	-82.88122889767725	67.33350369308147	1320.7533312501157	-32.73892389173969	86.02280598440647	1065.8567650531502	-52.002814529470214	72.30426275109647	1209.661426395768	-47.55514088671183	260.9732254443493	1337.7564708740576	-285.0619163673172	318.1763920216025	1274.136406782539	-267.6213590260111	-109.3938751683865	1337.9302467591954	-197.89382308580616	-93.93522127242612	1228.0024609147713	-291.3221848158857	130.18719299760892	1017.6318598606287	-207.13497089957576	92.1192853310389	1123.705686563563	-264.56271369998314	27.63089503755356	1256.363385727217	-242.04230392728576	22.016037128637407	1049.9449633850998	-219.51212876663485	160.13817421667906	1300.6212982471461	-238.72335221690088	177.90501752593627	661.2542494236753	-108.00513140597191	275.1321892934366	631.6676053243489	-98.21534222762936	15.712358421958086	585.3818779518244	-105.99906199621266	-117.52856236456398	758.0599713974344	-115.42469538079794	-144.7637605991512	215.9259786921175	-55.55684208149687	-11.937271621098589	333.7359407534024	-78.67779321792331	286.02757525739185	337.7209767926139	-68.90391404831821	197.09849895462114	287.8171247482763	-79.02275676946864	307.1402824994513	31.197350967957824	-259.31548304880425	329.77582139988147	36.52221994192273	-240.3980479883454	263.60284127464416	51.90600859112814	-199.10812269903016	299.0527327012158	62.99636498239003	-182.91294346500908	330.28950302977	53.07922526149431	-166.6862532699813	-155.20277103215523	33.209116594500145	-227.60638494752013	-169.28358992019412	68.3504721352664	-121.13328617537353	-169.97578524245208	33.33253250752572	-218.89964128639974	-137.0240173235146	33.05449720075893	-237.64432337689513	-141.54635447524183	51.577947024280924	-178.59830006358195	-109.24549327223035	65.50907237749487	-150.30988449953793	
69	2.3	81.28120154234507	1680.4544963811131	-188.65338513948976	92.27483074781112	1500.4373646138056	-285.631121950131	75.99794096571414	1380.7843422636802	-131.39040635050466	252.3826867984445	1360.4206109695062	-150.8473675797348	309.8785316575164	1244.3002434029731	-374.5149900507705	160.76617595800258	1415.0259085823493	-407.87173652257275	-78.50216347689434	1340.8720005281905	-145.0826749226651	-110.84071334889207	1229.7238790853307	-367.61690602507167	31.205291067526467	1409.2489805742582	-409.7390370364199	184.93485189321595	869.7477331159783	-141.1381023716009	205.90288358626609	488.8500050012893	-74.55116347454477	264.4428287384916	115.40747713595844	-67.47092136639482	-14.353378943806588	852.6883306329055	-139.4707711151784	-30.699868892907563	484.690671644979	-74.04671362628285	-93.49940845232041	115.24227430428957	-51.61132750120503	265.8660024651838	62.43464100201194	-52.00396427599355	-104.20457071517137	56.13476836806942	-25.797933161109817	285.1797739608608	35.6860473521663	-278.9616886789369	346.50552522700923	41.94572128780902	-212.2192157630516	-106.45374826157041	45.659292802798845	-256.2603495190663	-184.0297023472445	33.41217580429263	-194.69256487161826	-64.18613848742287	909.093669294211	-187.17888308446217	227.8804722027742	931.3120656747059	-185.98319671285395	128.1735915639028	954.6443830039711	-48.53913302456128	28.794568229195725	945.2667994915402	-53.57161675205047	111.6460630433916	1454.0939531868949	-445.85318163062414	112.53860358875761	1487.2087067202647	-403.7621050876621	78.21872733407027	1453.3408816157887	-450.4852991190417	80.49281984810445	1482.411012938956	-405.7024531643811	-78.88470235537484	481.87619246944223	-65.87752818814164	166.88518980000723	1403.4629882956226	-433.5580337348455	-144.6474473297608	110.01855587543847	-37.901616674771375	233.09436665654636	100.90240020774056	-81.55157803603869	249.15451077971042	480.5861476973921	-75.98896369044789	85.81287915495727	1211.342644423063	-231.74257004131206	-69.50321821026895	98.85598589243494	-69.1356952724247	164.9934412017885	479.17311454862227	-81.27583578785416	-92.74511713677015	1206.7178726140185	-349.3687291980403	87.5232249304255	989.4746286738384	-252.36389278218525	335.43390818294324	1274.4049564836869	-376.12223173141837	160.8203731839859	1411.478543100892	-376.28239272984837	19.20321900752038	1399.2264713793343	-438.0975233652041	-137.39338228293502	1257.0776804956695	-365.6143336324628	4.5087976960663525	475.8209209275942	-105.64875463109682	284.2207149523953	1221.4640785955946	-362.37244410725293	312.606129020799	104.96934737952162	-68.60059179819213	22.954872197136282	1413.0486180431294	-379.9214894888626	93.95228366167234	1430.271016387916	-258.443943972742	73.46103854931752	1217.7168360210742	-33.44714896636247	122.88859630413462	1531.916240143495	-286.93771274532537	56.589738173655284	1528.8779109151149	-290.70594010197567	0.4051911749376469	1533.1721584369234	-195.76781274304136	164.79947685595454	1538.0207799683787	-183.61341209807907	71.93962070877224	1439.572447108488	-80.4294104106297	69.76516756555966	1319.2596824653704	-31.140144896612835	87.75872820475482	1064.4928827014853	-52.65192016587281	74.314880466741	1208.2762797009598	-46.87623332963324	260.8149917209006	1337.2059802941108	-284.17591292755515	317.44749918588036	1272.9856350006294	-267.0763746161168	-107.72852703182818	1334.1264305130467	-194.49125594225364	-92.16019535292742	1225.5244808673951	-289.439612633659	128.99182027652273	1017.3812049250705	-208.92873366170429	90.01212787204845	1123.9280694396582	-264.84936662331353	26.125527217109116	1256.4893882380131	-240.15148206679842	20.653738882789785	1049.9145018034446	-219.06650325994852	158.72994255967623	1300.5640235514654	-238.94613971940626	178.75925719876255	660.816071683453	-108.38534039867184	276.05871970339314	631.524740872267	-98.42718059159478	16.75822629543604	585.0519191929791	-106.18734687136534	-116.82060492776041	757.4611158670774	-115.75156372318166	-143.20987812555614	215.7459781910555	-54.45076283936057	-10.538395566015858	333.585597987622	-78.29910530221103	287.13770740024836	337.6334813715414	-67.77748587177517	198.10567800061636	287.8135019198831	-77.39171633302227	307.53693714752336	31.90111156614388	-258.0000629521288	330.2095492770269	37.22554781351971	-239.12695409210843	264.1074589292759	52.27017811893668	-197.5991931015757	299.56991042499163	63.40712023894134	-181.46358987167858	330.88062341903327	53.524348112988754	-165.35890041800488	-154.95356540505944	33.28439837431097	-226.8202498564829	-168.24614695110182	68.25254859759418	-120.18891844893028	-169.66115203938102	33.39057056161885	-218.00321019533544	-136.85027203762954	33.14991882242587	-236.993935814441	-140.93536696828653	51.578060619883466	-177.88625285278974	-108.42707388053088	65.4713207770233	-149.81768420538927	
